<svg width="628" height="484" viewBox="0 0 628 484" fill="none" xmlns="http://www.w3.org/2000/svg">
<path d="M322.698 447.189L557.805 316.941C559.5 316.04 560.926 314.69 561.936 313.032C562.946 311.374 563.501 309.47 563.544 307.517C563.588 305.565 563.117 303.636 562.182 301.933C561.247 300.23 559.882 298.815 558.229 297.837L330.312 158.518C328.568 157.459 326.583 156.888 324.556 156.859C322.528 156.831 320.528 157.348 318.757 158.357L70.0534 300.775C68.3612 301.709 66.9477 303.093 65.9624 304.782C64.9772 306.471 64.4571 308.401 64.4571 310.367C64.4571 312.333 64.9772 314.263 65.9624 315.952C66.9477 317.641 68.3612 319.025 70.0534 319.959L291.816 446.965C296.53 449.652 301.831 451.082 307.229 451.121C312.626 451.16 317.946 449.808 322.698 447.189V447.189Z" fill="#00275E"/>
<path d="M282.898 253.736C282.898 253.736 235.343 279.695 224.086 341.633C224.086 341.633 270.401 351.667 332.416 299.217" fill="#EB773A"/>
<path d="M282.302 261.634C282.302 261.634 262.017 280.241 256.302 293.374C250.588 306.506 243.13 325.723 243.13 325.723C243.13 325.723 278.848 328.837 312.43 307.822C346.012 286.807 314 247.507 282.302 261.634Z" fill="#FFAE46"/>
<path d="M302.46 255.1C301.236 257.203 280.339 269.244 276.43 286.615L283.244 281.333C283.244 281.333 271.657 297.933 266.743 307.485C266.743 307.485 295.003 295.974 294.124 296.665L286.132 302.862C286.132 302.862 307.626 302.396 322.243 289.039C336.859 275.682 316.763 252.387 316.763 252.387L302.46 255.1Z" fill="#FAD374"/>
<path d="M365.527 254.94C365.527 254.94 361.838 279.422 353.941 285.443C346.044 291.463 320.406 311.419 320.406 311.419L316.151 305.671C316.151 305.671 333.829 273.45 336.953 259.226C340.078 245.002 365.527 254.94 365.527 254.94Z" fill="#68E1FD"/>
<path opacity="0.61" d="M365.527 254.94C365.527 254.94 361.838 279.422 353.941 285.443C346.044 291.463 320.406 311.419 320.406 311.419L316.151 305.671C316.151 305.671 333.829 273.45 336.953 259.226C340.078 245.002 365.527 254.94 365.527 254.94Z" fill="#363636"/>
<path d="M339.999 220.487C339.999 220.487 315.947 217.501 308.065 223.698C300.184 229.895 274.53 249.674 274.53 249.674L278.785 255.421C278.785 255.421 313.906 246.736 328.146 247.523C342.386 248.309 339.999 220.487 339.999 220.487Z" fill="#68E1FD"/>
<path opacity="0.61" d="M339.999 220.487C339.999 220.487 315.947 217.501 308.065 223.698C300.184 229.895 274.53 249.674 274.53 249.674L278.785 255.421C278.785 255.421 313.906 246.736 328.146 247.523C342.386 248.309 339.999 220.487 339.999 220.487Z" fill="#363636"/>
<path d="M455.473 179.388C461.831 169.232 466.965 158.327 470.764 146.911C470.764 146.911 456.791 147.071 435.91 153.429C437.575 164.297 446.068 172.967 455.473 179.388Z" fill="#68E1FD"/>
<path d="M399.458 223.513C406.093 218.372 406.84 207.955 401.127 200.245C395.414 192.534 385.405 190.451 378.77 195.591C372.135 200.732 371.388 211.149 377.101 218.859C382.814 226.57 392.823 228.653 399.458 223.513Z" fill="#68E1FD"/>
<path d="M519.56 108.477C519.56 108.477 387.994 141.934 321.143 240.989C321.143 240.989 305.443 258.118 313.027 267.639C320.61 277.159 345.887 269.581 345.887 269.581C345.887 269.581 428.955 245.468 519.56 108.477Z" fill="#68E1FD"/>
<path d="M321.144 240.989C321.144 240.989 304.564 238.934 299.164 243.156C293.763 247.378 276.053 261.056 276.053 261.056L278.989 265.022C278.989 265.022 303.198 259.034 312.995 259.579C322.792 260.125 321.144 240.989 321.144 240.989Z" fill="#68E1FD"/>
<path d="M341.114 267.944C341.114 267.944 338.57 284.817 333.123 289.023C327.675 293.229 310.012 306.923 310.012 306.923L307.092 303.006C307.092 303.006 319.275 280.803 321.426 270.994C323.577 261.185 341.114 267.944 341.114 267.944Z" fill="#68E1FD"/>
<path opacity="0.29" d="M321.144 240.989C321.144 240.989 304.564 238.934 299.164 243.156C293.763 247.378 276.053 261.056 276.053 261.056L278.989 265.022C278.989 265.022 303.198 259.034 312.995 259.579C322.792 260.125 321.144 240.989 321.144 240.989Z" fill="#363636"/>
<path opacity="0.29" d="M341.114 267.944C341.114 267.944 338.57 284.817 333.123 289.023C327.675 293.229 310.012 306.923 310.012 306.923L307.092 303.006C307.092 303.006 319.275 280.803 321.426 270.994C323.577 261.185 341.114 267.944 341.114 267.944Z" fill="#363636"/>
<path d="M455.645 132.606C455.645 132.606 455.19 155.355 478.74 163.784L465.081 179.645C465.081 179.645 435.502 162.644 440.087 140.312L455.645 132.606Z" fill="#68E1FD"/>
<path d="M371.164 185.345C371.164 185.345 371.431 223.875 406.567 234.84L380.474 253.077C380.474 253.077 342.794 239.704 349.78 205.428L371.164 185.345Z" fill="#68E1FD"/>
<path d="M434.674 179.789C437.01 177.98 437.469 174.576 435.699 172.187C433.929 169.799 430.6 169.329 428.264 171.139C425.928 172.949 425.47 176.353 427.239 178.741C429.009 181.13 432.338 181.599 434.674 179.789Z" fill="#68E1FD"/>
<path d="M415.403 208.212C421.521 203.52 422.761 194.645 418.173 188.388C413.584 182.132 404.904 180.864 398.786 185.556C392.668 190.249 391.428 199.124 396.017 205.38C400.605 211.636 409.285 212.904 415.403 208.212Z" fill="#68E1FD"/>
<path opacity="0.61" d="M455.645 132.606C455.645 132.606 455.19 155.355 478.74 163.784L465.081 179.645C465.081 179.645 435.502 162.644 440.087 140.312L455.645 132.606Z" fill="#606060"/>
<path opacity="0.61" d="M371.164 185.345C371.164 185.345 371.431 223.875 406.567 234.84L380.474 253.077C380.474 253.077 342.794 239.704 349.78 205.428L371.164 185.345Z" fill="#606060"/>
<path opacity="0.61" d="M434.674 179.789C437.01 177.98 437.469 174.576 435.699 172.187C433.929 169.799 430.6 169.329 428.264 171.139C425.928 172.949 425.47 176.353 427.239 178.741C429.009 181.13 432.338 181.599 434.674 179.789Z" fill="#606060"/>
<path opacity="0.61" d="M415.403 208.212C421.521 203.52 422.761 194.645 418.173 188.388C413.584 182.132 404.904 180.864 398.786 185.556C392.668 190.249 391.428 199.124 396.017 205.38C400.605 211.636 409.285 212.904 415.403 208.212Z" fill="#606060"/>
<path d="M480.891 278.812C480.475 278.812 480.075 278.982 479.781 279.283C479.486 279.584 479.321 279.992 479.321 280.418C479.321 280.844 479.486 281.252 479.781 281.553C480.075 281.854 480.475 282.023 480.891 282.023C481.307 282.023 481.707 281.854 482.001 281.553C482.296 281.252 482.461 280.844 482.461 280.418C482.461 279.992 482.296 279.584 482.001 279.283C481.707 278.982 481.307 278.812 480.891 278.812Z" fill="white"/>
<path d="M401.355 342.756V343.784C401.355 344.21 401.52 344.618 401.815 344.919C402.109 345.22 402.508 345.389 402.925 345.389C403.341 345.389 403.741 345.22 404.035 344.919C404.329 344.618 404.495 344.21 404.495 343.784V342.756C404.495 342.331 404.329 341.922 404.035 341.621C403.741 341.32 403.341 341.151 402.925 341.151C402.508 341.151 402.109 341.32 401.815 341.621C401.52 341.922 401.355 342.331 401.355 342.756Z" fill="white"/>
<path d="M291.392 368.315V369.342C291.392 369.768 291.557 370.176 291.852 370.477C292.146 370.779 292.546 370.948 292.962 370.948C293.378 370.948 293.778 370.779 294.072 370.477C294.367 370.176 294.532 369.768 294.532 369.342V368.315C294.532 367.889 294.367 367.481 294.072 367.18C293.778 366.879 293.378 366.709 292.962 366.709C292.546 366.709 292.146 366.879 291.852 367.18C291.557 367.481 291.392 367.889 291.392 368.315Z" fill="white"/>
<path d="M393.929 290.05C393.512 290.05 393.113 290.219 392.818 290.521C392.524 290.822 392.359 291.23 392.359 291.656C392.359 292.082 392.524 292.49 392.818 292.791C393.113 293.092 393.512 293.261 393.929 293.261C394.345 293.261 394.744 293.092 395.039 292.791C395.333 292.49 395.499 292.082 395.499 291.656C395.499 291.23 395.333 290.822 395.039 290.521C394.744 290.219 394.345 290.05 393.929 290.05Z" fill="white"/>
<path d="M206 286.952C205.583 286.952 205.184 287.121 204.89 287.422C204.595 287.723 204.43 288.132 204.43 288.557C204.43 288.983 204.595 289.391 204.89 289.693C205.184 289.994 205.583 290.163 206 290.163C206.416 290.163 206.815 289.994 207.11 289.693C207.404 289.391 207.57 288.983 207.57 288.557C207.57 288.132 207.404 287.723 207.11 287.422C206.815 287.121 206.416 286.952 206 286.952Z" fill="white"/>
<path d="M135.444 291.656V292.683C135.444 293.109 135.609 293.517 135.904 293.818C136.198 294.12 136.598 294.289 137.014 294.289C137.43 294.289 137.83 294.12 138.124 293.818C138.419 293.517 138.584 293.109 138.584 292.683V291.656C138.584 291.23 138.419 290.822 138.124 290.521C137.83 290.219 137.43 290.05 137.014 290.05C136.598 290.05 136.198 290.219 135.904 290.521C135.609 290.822 135.444 291.23 135.444 291.656Z" fill="white"/>
<path d="M169.011 342.179C168.594 342.179 168.195 342.348 167.9 342.649C167.606 342.95 167.441 343.358 167.441 343.784C167.441 344.21 167.606 344.618 167.9 344.919C168.195 345.22 168.594 345.389 169.011 345.389C169.427 345.389 169.826 345.22 170.121 344.919C170.415 344.618 170.581 344.21 170.581 343.784C170.581 343.358 170.415 342.95 170.121 342.649C169.826 342.348 169.427 342.179 169.011 342.179Z" fill="white"/>
<path d="M220.993 251.199C220.577 251.199 220.177 251.368 219.883 251.669C219.589 251.97 219.423 252.379 219.423 252.805C219.423 253.23 219.589 253.639 219.883 253.94C220.177 254.241 220.577 254.41 220.993 254.41C221.41 254.41 221.809 254.241 222.103 253.94C222.398 253.639 222.563 253.23 222.563 252.805C222.563 252.379 222.398 251.97 222.103 251.669C221.809 251.368 221.41 251.199 220.993 251.199Z" fill="white"/>
<path d="M297.955 200.098C297.538 200.098 297.139 200.268 296.844 200.569C296.55 200.87 296.385 201.278 296.385 201.704C296.385 202.13 296.55 202.538 296.844 202.839C297.139 203.14 297.538 203.309 297.955 203.309C298.371 203.309 298.77 203.14 299.065 202.839C299.359 202.538 299.525 202.13 299.525 201.704C299.525 201.278 299.359 200.87 299.065 200.569C298.77 200.268 298.371 200.098 297.955 200.098Z" fill="white"/>
<path d="M344.945 400.439C344.528 400.439 344.129 400.609 343.835 400.91C343.54 401.211 343.375 401.619 343.375 402.045C343.375 402.471 343.54 402.879 343.835 403.18C344.129 403.481 344.528 403.65 344.945 403.65C345.361 403.65 345.76 403.481 346.055 403.18C346.349 402.879 346.515 402.471 346.515 402.045C346.515 401.619 346.349 401.211 346.055 400.91C345.76 400.609 345.361 400.439 344.945 400.439Z" fill="white"/>
<path d="M448.894 310.198C438.799 310.198 438.768 326.253 448.894 326.253C459.021 326.253 459.021 310.198 448.894 310.198Z" fill="#FFAE46"/>
<path d="M167.017 300.999C156.922 300.999 156.89 317.054 167.017 317.054C177.143 317.054 177.127 300.999 167.017 300.999Z" fill="#FFAE46"/>
<path d="M317.501 406.588C316.029 405.083 314.033 404.238 311.951 404.238C309.87 404.238 307.873 405.083 306.401 406.588C304.958 408.115 304.138 410.148 304.109 412.271V413.299C304.132 415.424 304.953 417.458 306.401 418.982C307.873 420.487 309.87 421.332 311.951 421.332C314.033 421.332 316.029 420.487 317.501 418.982C318.944 417.455 319.764 415.422 319.793 413.299V412.271C319.77 410.146 318.95 408.112 317.501 406.588V406.588Z" fill="#00AEE1"/>
<path d="M173.877 191.814C192.78 191.814 208.104 176.145 208.104 156.816C208.104 137.487 192.78 121.818 173.877 121.818C154.975 121.818 139.651 137.487 139.651 156.816C139.651 176.145 154.975 191.814 173.877 191.814Z" fill="#68E1FD"/>
<path d="M201.714 137.567C205.325 136.549 208.995 135.766 212.704 135.223C214.566 134.934 216.442 134.752 218.324 134.677C220.278 134.565 222.238 134.684 224.165 135.031C225.279 135.224 226.346 135.638 227.305 136.251C227.883 136.64 228.375 137.148 228.749 137.744C229.142 138.393 229.369 139.133 229.408 139.895C229.422 141.155 229.137 142.401 228.576 143.523C228.132 144.478 227.607 145.391 227.006 146.252C224.626 149.379 221.873 152.189 218.811 154.617C212.934 159.401 206.691 163.696 200.144 167.46C193.665 171.29 186.994 174.768 180.158 177.879C173.319 181.043 166.299 183.777 159.135 186.067C155.526 187.245 151.857 188.226 148.145 189.005C144.342 189.859 140.478 190.401 136.59 190.626C134.598 190.731 132.601 190.65 130.624 190.386C128.509 190.141 126.45 189.533 124.532 188.588C123.479 188.069 122.514 187.381 121.675 186.549C120.733 185.596 120.056 184.405 119.713 183.097C119.409 181.848 119.409 180.541 119.713 179.292C119.971 178.206 120.367 177.159 120.89 176.178C122.959 172.761 125.619 169.758 128.74 167.316C131.622 164.875 134.706 162.694 137.956 160.798C135.263 163.341 132.695 166.02 130.263 168.825C127.83 171.478 125.812 174.5 124.281 177.783C123.665 179.035 123.519 180.475 123.873 181.829C124.076 182.331 124.4 182.773 124.815 183.113C125.352 183.541 125.944 183.892 126.573 184.157C129.697 185.215 133.013 185.539 136.276 185.104C143.387 184.258 150.385 182.611 157.141 180.191C164.049 177.911 170.785 175.054 177.551 172.164C190.941 166.298 203.757 159.149 215.828 150.812C218.727 148.763 221.406 146.406 223.819 143.78C224.355 143.165 224.838 142.505 225.264 141.805C225.598 141.268 225.822 140.668 225.923 140.039C225.937 139.825 225.895 139.611 225.801 139.419C225.708 139.227 225.565 139.065 225.389 138.948C224.796 138.507 224.132 138.175 223.427 137.968C219.954 137.115 216.381 136.769 212.814 136.941C209.093 136.957 205.403 137.182 201.714 137.567Z" fill="#8CC63F"/>
</svg>
